<svg xmlns="http://www.w3.org/2000/svg" viewBox="0 0 220 56" fill="none">
  <!--
    Oryen — Logo Final (dark background)
    Conceito: "Orbital Intelligence"
    Wordmark em paths (independente de fontes)
    Versao: 2.0 Final
  -->

  <defs>
    <linearGradient id="g1" x1="0%" y1="0%" x2="100%" y2="100%">
      <stop offset="0%" stop-color="#4F6FFF"/>
      <stop offset="50%" stop-color="#6E5FFF"/>
      <stop offset="100%" stop-color="#8B5CF6"/>
    </linearGradient>
  </defs>

  <!-- SIMBOLO — Orbital Intelligence -->
  <!-- Arco orbital 280° com abertura no topo-direita -->
  <g transform="translate(4, 4)">
    <path
      d="M 36.26 13.72 A 16 16 0 1 1 16.00 37.86"
      stroke="url(#g1)"
      stroke-width="5"
      stroke-linecap="round"
      fill="none"
    />
    <!-- Terminal node (nó neural) -->
    <circle cx="36.26" cy="13.72" r="3" fill="#4F6FFF"/>
  </g>

  <!-- WORDMARK — "oryen" em paths -->
  <g transform="translate(58, 14)" fill="#EDEDF5">
    <!-- o -->
    <path d="M12.5 8C12.5 3.86 9.64 1 5.8 1C1.96 1 -0.9 3.86 -0.9 8C-0.9 12.14 1.96 15 5.8 15C9.64 15 12.5 12.14 12.5 8ZM9.7 8C9.7 10.66 8.1 12.4 5.8 12.4C3.5 12.4 1.9 10.66 1.9 8C1.9 5.34 3.5 3.6 5.8 3.6C8.1 3.6 9.7 5.34 9.7 8Z" transform="translate(0,12)"/>
    <!-- r -->
    <path d="M4.2 14.8V7.6C4.2 5.3 5.4 3.8 7.6 3.6V1.1C4.6 1.2 3.2 2.8 2.8 4.6H2.6V1.4H0V14.8H4.2Z" transform="translate(17,12)" fill-rule="evenodd"/>
    <!-- y -->
    <path d="M11.4 1.4L6.8 12.6H6.6L2 1.4H-1.2L5 13.8L2.6 19.4H5.6L13.6 1.4H11.4Z" transform="translate(29,12)"/>
    <!-- e -->
    <path d="M12.2 9.2H3.2C3.4 11.4 4.8 12.6 7 12.6C8.6 12.6 9.8 11.8 10.4 10.6L12.6 11.6C11.6 13.6 9.6 15 7 15C3 15 0.2 12.2 0.2 8C0.2 3.8 3 1 6.8 1C10.6 1 12.8 3.8 12.8 7.6C12.8 8.1 12.6 8.7 12.2 9.2ZM3.4 7H9.8C9.6 5 8.4 3.4 6.6 3.4C4.8 3.4 3.6 5 3.4 7Z" transform="translate(47,12)"/>
    <!-- n -->
    <path d="M4.2 14.8V7.2C4.2 5 5.6 3.6 7.6 3.6C9.4 3.6 10.6 4.8 10.6 7V14.8H13.4V6.4C13.4 3 11.4 1 8.6 1C6.4 1 5 2 4 3.4H3.8V1.4H0.6V14.8H4.2Z" transform="translate(63,12)"/>
  </g>
</svg>
